PathFileType	4	(X/Y/Z)	Patient4_TMGait_0pt8_01_right_10.trc.trc
DataRate	CameraRate	NumFrames	NumMarkers	Units	OrigDataRate	OrigDataStartFrame	OrigNumFrames
85.889570552147	85.889570552147	5	33	mm	85.889570552147	1	       141
Frame#	Time	Sacral			L.Shoulder			Chest			R.Shoulder			Neck			R.ASIS			L.ASIS			R.Thigh.Superior			R.Thigh.Lateral			R.Thigh.Inferior			R.Patella			L.Thigh.Superior			L.Thigh.Lateral			L.Thigh.Inferior			L.Patella			L.Shank.Superior			L.Shank.Lateral			L.Shank.Inferior			R.Shank.Superior			R.Shank.Lateral			R.Shank.Inferior			R.Heel			R.Midfoot.Superior			R.Midfoot.Lateral			R.Toe			L.Heel			L.Midfoot.Lateral			L.Midfoot.Superior			L.Toe			L.Elbow			L.Wrist			R.Elbow			R.Wrist			
		X1	Y1	Z1	X2	Y2	Z2	X3	Y3	Z3	X4	Y4	Z4	X5	Y5	Z5	X6	Y6	Z6	X7	Y7	Z7	X8	Y8	Z8	X9	Y9	Z9	X10	Y10	Z10	X11	Y11	Z11	X12	Y12	Z12	X13	Y13	Z13	X14	Y14	Z14	X15	Y15	Z15	X16	Y16	Z16	X17	Y17	Z17	X18	Y18	Z18	X19	Y19	Z19	X20	Y20	Z20	X21	Y21	Z21	X22	Y22	Z22	X23	Y23	Z23	X24	Y24	Z24	X25	Y25	Z25	X26	Y26	Z26	X27	Y27	Z27	X28	Y28	Z28	X29	Y29	Z29	X30	Y30	Z30	X31	Y31	Z31	X32	Y32	Z32	X33	Y33	Z33	

1	10.940000000000	859.434141378147	1008.171004842320	445.258705873010	1034.437593601914	1440.616108867713	276.100105246112	1131.245148555827	1373.583849090799	441.735053072289	1035.624890828712	1441.880520838773	612.682301667342	1009.963070244020	1499.234019349980	432.598939993004	1082.214047142702	944.614321226725	569.234381788405	1079.429553722292	967.340363361244	295.758193613953	1156.131057361987	764.150913161411	551.638427589799	1099.456488672369	647.016642177031	624.643526270825	1194.837766584988	600.120018423210	556.629390467647	1200.056313579835	484.208634619128	581.566871041060	1126.588228734326	754.409994718856	319.788207346752	1034.604564316484	638.010565385751	264.990990599300	1119.737954250042	560.141821070413	325.952580214526	1119.534462791130	491.402306131245	337.526642311534	1093.180400277995	419.152918738358	331.595384690185	1003.828536903503	303.741151553658	281.085668541319	1054.236044706364	194.690249384959	357.042790825696	1113.317847541020	418.543082305464	580.814724288162	981.354990190255	401.092755753126	628.798593507341	954.681258807159	294.961232829347	579.768908269315	750.086272502476	266.403316356292	531.838010118156	901.771578146736	181.500668148125	588.162560098633	790.835200962896	198.659084459520	610.228083324413	944.547080477550	61.271376982345	621.935874707547	925.170703393752	38.899632642328	399.810614912921	1002.172876014912	35.639859666867	321.857912293801	1084.184800966326	96.657463993767	351.673619790954	1213.512725615263	45.906520146096	329.621648175783	1028.678379330057	1090.527369080313	147.168823603864	1112.209879018825	843.205524127304	153.455739797077	1002.059162637513	1092.943382766884	721.882958180332	1227.123211368133	972.013217626971	691.796397368758	
2	10.951642857143	858.134237438819	1008.304010612191	444.048088158929	1033.974779446679	1440.963760721755	275.518756869603	1129.803204025660	1373.960513151491	441.697998248099	1033.432559160925	1442.217884603823	612.109063788768	1008.634473068013	1499.623314928188	431.826484129465	1080.636124746582	945.484830164136	568.897962842577	1079.129487741135	968.241964778922	295.037817696630	1157.679932184060	768.485064317584	551.067625837479	1104.501966950436	650.411699706907	624.869673738062	1200.722552947612	605.743206488146	556.796766704807	1209.102773734215	490.180013124708	581.916699430090	1122.845236267759	753.547522232370	319.634011845317	1028.822228012494	638.554767861032	264.217336655467	1112.282046571874	559.296811681417	325.504366274094	1110.898553826751	490.815713537772	337.179301897517	1084.483115477164	418.987228745649	331.082298758261	994.592486211339	303.902612112446	280.675909245033	1044.711646511466	194.720231219800	356.717162127368	1124.535375633661	422.214784286896	580.885386311786	993.355708570279	400.413056358862	628.709744707395	969.952390940388	293.669900446960	579.320590330740	766.522872683031	258.679043102447	531.244371498441	920.957646329417	179.074553722897	587.965673293092	809.427864203854	192.342961234220	609.661860201302	967.418801268749	60.025478479520	621.007481683875	915.249163105603	38.976618758036	399.693443513073	992.303384383760	35.617731725869	321.785439820500	1074.340095704185	96.636174359916	351.517973864820	1203.635318208618	45.834834842703	329.561913946457	1039.150126694721	1092.444793323955	144.329312481205	1132.629736638022	849.222021631902	149.645214925585	992.840156331590	1093.741915369896	720.021190029001	1201.773039890663	951.358836157267	693.496430357801	
3	10.963285714286	856.836725230476	1008.417296349813	442.873548543656	1033.532138211893	1441.294429851580	274.966894146311	1128.391916886773	1374.311507962804	441.678310864088	1031.279233713537	1442.514183609367	611.567854606569	1007.328057578957	1499.983305188267	431.089903417520	1079.060395199979	946.297911779880	568.579820768149	1078.848393061664	969.111193914995	294.343462698072	1159.165684240517	772.727577068076	550.523464242077	1109.427606867260	653.739227220011	625.088842334059	1206.451517446632	611.259010434453	556.946990779429	1217.927747523137	496.070262398867	582.254949259719	1119.110795702953	752.682768936269	319.556408722370	1023.119378137410	639.073864857662	263.482575711323	1104.890842757865	558.457052116552	325.101347366042	1102.345578087440	490.240197753696	336.860534785157	1075.877228113655	418.822329532627	330.594371711961	985.465439773696	304.057341072706	280.281985519963	1035.289661098324	194.746135876000	356.410952045056	1135.562158261692	425.792013489073	580.964233209341	1005.198255659155	399.571894255757	628.657929431257	985.133255317744	292.201392214739	578.943905406379	782.888489819930	250.661744074839	530.769286949068	940.097302296046	176.431066835480	587.863947998537	827.993848279879	185.776974702576	609.224840185225	990.315203613861	58.605990762902	620.238931536507	905.448281410880	39.046950880206	399.579925521740	982.552299322342	35.594468250763	321.715028683414	1064.611968328297	96.618711916420	351.367505059138	1193.877999549124	45.766026521318	329.505079309430	1049.378913397325	1094.384316718307	141.557077075950	1152.752139860000	855.300269888533	145.959138973328	983.849533420837	1094.460374151581	718.164021590842	1176.373705030418	931.221414309087	695.188718537366	
4	10.974928571429	855.545658580597	1008.480860546001	441.770941631662	1033.137086054708	1441.580350567709	274.487247111974	1127.043030559234	1374.595682159116	441.708501778249	1029.201043647794	1442.713451520108	611.102530671140	1006.067022763764	1500.271186906976	430.436972101114	1077.487338627781	946.987504994871	568.306718608366	1078.596483181772	969.899797304851	293.712613540931	1160.502679721266	776.755051808051	550.023197196381	1114.080000188061	656.894929474441	625.284465105975	1211.827401374356	616.516821581847	557.045272868618	1226.291342025935	501.789575039868	582.544409041887	1115.364470231806	751.789270488304	319.616562627590	1017.515550363839	639.543010755471	262.819063517587	1097.560782190211	557.619062284302	324.778858825729	1093.879385282707	489.675498353717	336.592675574953	1067.367545205433	418.655876657528	330.153205718884	976.466369771034	304.199526674756	279.915237442983	1025.979639425799	194.762633353979	356.141797656460	1146.237878118973	429.182434196818	581.053883313386	1016.845989935640	398.365390865790	628.699839866016	1000.317398317361	290.374671541666	578.727318161432	799.437487661426	241.952316501151	530.566533877446	959.424611714748	173.390599785112	587.983028392422	846.837796071416	178.675615261171	609.079842835436	1013.576204348425	56.975240589611	619.814683778574	895.789061144238	39.106173040102	399.474971860129	972.938560314022	35.569838783996	321.648894717520	1055.018055004424	96.606505607942	351.228161470606	1184.260762882999	45.704026108851	329.453472144439	1059.154721701648	1096.365143568513	138.906257801466	1172.395493477383	861.619749338392	142.521647916354	975.197507455588	1095.050707617792	716.323551789209	1150.718771103348	912.157284293373	696.885025502918	
5	10.986571428571	854.267369150065	1008.466809543456	440.770643249217	1032.814551180564	1441.795557345943	274.118998874644	1125.783632068737	1374.773512250702	441.819617661094	1027.227961896659	1442.763814664610	610.752829356711	1004.870575492315	1500.447202417929	429.913782844172	1075.920473371221	947.500782642265	568.104451214709	1078.367431795919	970.557700387696	293.183789180751	1161.615624183614	780.455134391381	549.573838860538	1118.326491616748	659.779495692452	625.437743050228	1216.677373754757	621.375896347169	557.052814847365	1233.992632445744	507.255868277728	582.741736773822	1111.589762322137	750.837519984215	319.852352664169	1012.008831864985	639.943804436725	262.247977052899	1090.270556145503	556.775510565967	324.562800812199	1085.484244572001	489.118131426322	336.390301833571	1058.934846008430	418.485444585919	329.774796446326	967.586359264012	304.324405897015	279.584042734780	1016.766493781504	194.764922570699	355.923306244593	1156.435544425445	432.310435024596	581.152604594955	1028.303264357263	396.620588600004	628.886414440757	1015.629826688962	288.049146279443	578.747989923836	816.470232579713	232.213359290845	530.774123262745	979.206251239808	169.834688348017	588.443897148885	866.298032254758	170.816406762606	609.374181089987	1037.554124440612	55.156597923909	619.896897232684	886.262015728675	39.150939146250	399.383057430972	963.450598203121	35.543591178415	321.589385617398	1045.545621204641	96.600331918173	351.105139881784	1174.772603469740	45.652322360992	329.408688567890	1068.311698257705	1098.396155621943	136.415549793560	1191.437851114576	868.355925016819	139.431724795485	966.927946883271	1095.485526905230	714.512527491441	1124.625685214104	894.654963088592	698.598755706916	
